<?xml version="1.0" encoding="UTF-8"?>
<svg xmlns="http://www.w3.org/2000/svg" viewBox="0 0 512 512">
  <defs>
    <style>
      .cls-1 {
        fill: #fff;
      }

      .cls-2 {
        fill: #212932;
      }

      .cls-3 {
        fill: #c8c8c8;
      }

      .cls-4 {
        fill: none;
      }
    </style>
  </defs>
  <g id="Layer_3" data-name="Layer 3">
    <path id="Path_-_Outest_Fill" data-name="Path - Outest + Fill" class="cls-2" d="M436.47,394.79c51.84-99.88-12.18-185.58-12.18-185.58,31.41-6.73,39.1-16.99,39.1-16.99,0,0,23.72-20.83,0-45.51-23.72-24.68-117.63-17.63-117.63-17.63C281.02,51.51,205.22,34.36,193.84,28.91c-11.38-5.45-18.27,1.92-18.27,1.92,0,0-77.25,71.96-85.1,77.89-7.85,5.93-7,12.82-7,12.82v74.52s-46.05,1.28-45.41,36.54c.64,35.26,45.41,39.1,45.41,39.1v194.34c2.06,16.69,17.66,19.04,17.66,19.04h196.4s95.35-6.33,138.95-90.31Z"/>
    <path id="Path_-_Inner_D" data-name="Path - Inner D" class="cls-1" d="M246.73,261.61h33.01s44.87-1.44,44.87,48.8-44.87,48.8-44.87,48.8h-64.3s0-97.6,0-97.6"/>
  </g>
  <g id="Layer_2" data-name="Layer 2">
    <path id="Path_-_Hat_Fill" data-name="Path - Hat + Fill" class="cls-1" d="M112.64,128.86L188.07,60.91s91.88,29.7,145.52,102.14c0,0,58.66-9.65,98.4,2.08,16.83,4.97,4.01,13.62-10.1,16.51-14.1,2.88-20.48,5.11-117.15-5.45,0,0-8.49,.96-61.06,29.65-52.57,28.69-85.1,37.18-113.94,39.58-28.85,2.4-53.69-5.45-56.25-6.57-2.56-1.12-8.65-5.77,2.56-10.58,11.22-4.81,141.3-56.68,141.3-56.68l-6.41-6.62-41.03,9.4,14.1-29.92,29.7-27.99-12.39-11.97-32.69,29.49-19.23-19.44-25.43,17.74,21.15,7.16,6.84,4.38-19.02,39.74-18.16,3.21-2.14-57.91Z"/>
  </g>
  <g id="Shadow">
    <path id="Path_-_Outer_D_Fill" data-name="Path - Outer D + Fill" class="cls-1" d="M296.73,454.72H123.97c-6.73,0-7.61-7.77-7.61-7.77v-173c40.87-.8,66.11-11.3,66.11-11.3l.05,121.34c0,6.52,5.56,6.94,5.56,6.94h100s63.14-2.24,69.23-78.53c-.96-69.23-62.82-80.45-62.82-80.45h-36.86s17.32-22.48,96.8-38.46c0,0,70.19,33.65,71.16,118.59,.96,84.94-68.91,138.14-128.85,142.63Z"/>
    <path id="Path_-_Letter_Left_Shadow" data-name="Path - Letter Left Shadow" class="cls-3" d="M257.62,231.6l40.4,.85c6.09-3.67,13.08-7.33,20.96-10.61,22.79-9.49,43.88-12.01,59.26-12.36,0,0-13.89-10.79-23.08-16.09,0,0-60.9,7.83-97.55,38.2Z"/>
    <path id="Path_-_Letter_Right_Shadow" data-name="Path - Letter Right Shadow" class="cls-3" d="M116.35,273.95v19.71s19.33,1.92,66.11-14.58v-16.43s-24.52,9.5-65.39,11.28"/>
    <path id="Path_-_Outer_Letter_Outline" data-name="Path - Outer Letter Outline" class="cls-4" d="M296.73,454.72H123.97c-6.73,0-7.61-7.77-7.61-7.77v-173c40.87-.8,66.11-11.3,66.11-11.3l.05,121.34c0,6.52,5.56,6.94,5.56,6.94h100s63.14-2.24,69.23-78.53c-.96-69.23-62.82-80.45-62.82-80.45h-36.86s17.32-22.48,96.8-38.46c0,0,70.19,33.65,71.16,118.59,.96,84.94-68.91,138.14-128.85,142.63Z"/>
  </g>
</svg>